{
  "asset": {
    "version": "2.0",
    "generator": "THREE.GLTFExporter"
  },
  "scenes": [
    {
      "nodes": [
        0
      ]
    }
  ],
  "scene": 0,
  "nodes": [
    {
      "children": [
        9
      ],
      "matrix": [
        0.01,
        0,
        0,
        0,
        0,
        0.01,
        0,
        0,
        0,
        0,
        0.01,
        0,
        0,
        0,
        0,
        1
      ]
    },
    {
      "matrix": [
        0.768198962360441,
        0.550375302374677,
        0.32704339278500116,
        0,
        0.5824019820615176,
        -0.8129009357177637,
        0,
        0,
        0.2658538800152396,
        0.1904707201781081,
        -0.9450093223009366,
        0,
        0,
        0,
        0,
        1
      ],
      "name": "Directional Light 4",
      "extensions": {
        "KHR_lights_punctual": {
          "light": 0
        }
      }
    },
    {
      "matrix": [
        0.194242040858314,
        -0.29239912658806494,
        -0.9363614581633173,
        0,
        0.8329573143233158,
        0.5533372502509558,
        0,
        0,
        0.5181236745010653,
        -0.7799491254275805,
        0.3510373479649511,
        0,
        0,
        0,
        0,
        1
      ],
      "name": "Directional Light 3",
      "extensions": {
        "KHR_lights_punctual": {
          "light": 1
        }
      }
    },
    {
      "matrix": [
        0.5238423016168832,
        0.13291672003882685,
        -0.8413812385422238,
        0,
        -0.24594074346914055,
        0.9692848656106451,
        0,
        0,
        0.8155381007277175,
        0.20692992734806082,
        0.5404420518697204,
        0,
        0,
        0,
        0,
        1
      ],
      "name": "Directional Light 5",
      "extensions": {
        "KHR_lights_punctual": {
          "light": 2
        }
      }
    },
    {
      "matrix": [
        0.6536387108973456,
        0.4295160655243325,
        -0.6231150656764396,
        0,
        -0.5491618630124186,
        0.8357160093074258,
        0,
        0,
        0.5207472360264487,
        0.34219103033797915,
        0.7821301777370865,
        0,
        0,
        0,
        0,
        1
      ],
      "name": "Directional Light 2",
      "extensions": {
        "KHR_lights_punctual": {
          "light": 3
        }
      }
    },
    {
      "matrix": [
        0.13571568629932645,
        0.201963427135531,
        -0.9699443420072998,
        0,
        -0.8300086789747462,
        0.5577504754158411,
        0,
        0,
        0.5409869178814767,
        0.8050622219885083,
        0.24332688591281096,
        0,
        0,
        0,
        0,
        1
      ],
      "name": "Directional Light",
      "extensions": {
        "KHR_lights_punctual": {
          "light": 4
        }
      }
    },
    {
      "matrix": [
        12.30075766330784,
        1.6473385451502367,
        -1.4925269264692622,
        0,
        0.23787218059207355,
        -1.431241291021613,
        0.38074294816208554,
        0,
        -0.40238763488609225,
        -1.3435886325191524,
        -4.799255544129326,
        0,
        -37.47211491359268,
        304.20679121113653,
        -17.505264998955056,
        1
      ],
      "name": "Dodecahedron",
      "mesh": 0
    },
    {
      "matrix": [
        -0.9655438860119194,
        5.2909066017292616e-17,
        0.2602402816341119,
        0,
        0.014712469046793807,
        0.9984006647172423,
        0.05458622488060387,
        0,
        -0.2598240701696996,
        0.056534172782209555,
        -0.9639996576079695,
        0,
        -250.8236815789288,
        580.0156873626798,
        -1487.179799030213,
        1
      ],
      "camera": 0
    },
    {
      "matrix": [
        1,
        0,
        0,
        0,
        0,
        1,
        0,
        0,
        0,
        0,
        1,
        0,
        0,
        1,
        0,
        1
      ],
      "name": "Default Ambient Light"
    },
    {
      "name": "Scene 1",
      "children": [
        1,
        2,
        3,
        4,
        5,
        6,
        7,
        8
      ]
    }
  ],
  "extensions": {
    "KHR_lights_punctual": {
      "lights": [
        {
          "name": "Directional Light 4",
          "color": [
            0.6307390342278759,
            0.667678903663672,
            0.7193947208737864
          ],
          "intensity": 7.448,
          "type": "directional"
        },
        {
          "name": "Directional Light 3",
          "color": [
            0,
            0,
            0
          ],
          "intensity": 7.228,
          "type": "directional"
        },
        {
          "name": "Directional Light 5",
          "color": [
            0.026303998724388853,
            0.06413076456310685,
            0.021308010783426097
          ],
          "intensity": 10,
          "type": "directional"
        },
        {
          "name": "Directional Light 2",
          "color": [
            0.0002694150709119302,
            0.0001321901013437871,
            0.0013084041262135804
          ],
          "intensity": 10,
          "type": "directional"
        },
        {
          "name": "Directional Light",
          "color": [
            0.7590260922330097,
            0.7590260922330097,
            0.7590260922330097
          ],
          "intensity": 3.715,
          "type": "directional"
        }
      ]
    }
  },
  "bufferViews": [
    {
      "buffer": 0,
      "byteOffset": 0,
      "byteLength": 253152,
      "target": 34962,
      "byteStride": 12
    },
    {
      "buffer": 0,
      "byteOffset": 253152,
      "byteLength": 253152,
      "target": 34962,
      "byteStride": 12
    },
    {
      "buffer": 0,
      "byteOffset": 506304,
      "byteLength": 126576,
      "target": 34963
    }
  ],
  "buffers": [
    {
      "byteLength": 632880,
      "uri": "data:application/octet-stream;base64,"
    }
  ],
  "accessors": [
    {
      "bufferView": 0,
      "componentType": 5126,
      "count": 21096,
      "max": [
        54.02206039428711,
        195.35044860839844,
        57.03874588012695
      ],
      "min": [
        -54.99728775024414,
        -189.01345825195312,
        -45.66796112060547
      ],
      "type": "VEC3"
    },
    {
      "bufferView": 1,
      "componentType": 5126,
      "count": 21096,
      "max": [
        0.9999997615814209,
        0.999976634979248,
        0.9999980926513672
      ],
      "min": [
        -0.9999992847442627,
        -0.9998725056648254,
        -0.9999454021453857
      ],
      "type": "VEC3"
    },
    {
      "bufferView": 2,
      "componentType": 5125,
      "count": 31644,
      "max": [
        21095
      ],
      "min": [
        0
      ],
      "type": "SCALAR"
    }
  ],
  "materials": [
    {
      "alphaMode": "BLEND",
      "pbrMetallicRoughness": {
        "baseColorFactor": [
          0.27146541262135926,
          0.26512868016275615,
          0.26512868016275615,
          0.2
        ],
        "metallicFactor": 0,
        "roughnessFactor": 0.995
      },
      "doubleSided": true
    }
  ],
  "meshes": [
    {
      "primitives": [
        {
          "mode": 4,
          "attributes": {
            "POSITION": 0,
            "NORMAL": 1
          },
          "extras": {
            "type": "SubdivGeometry",
            "parameters": {
              "width": 114.88952255249023,
              "height": 441.24000549316406,
              "depth": 114.01943588256836
            }
          },
          "indices": 2,
          "material": 0
        }
      ]
    }
  ],
  "cameras": [
    {
      "type": "orthographic",
      "orthographic": {
        "xmag": 13.259676581578553,
        "ymag": 6.44940305468266,
        "zfar": 100000,
        "znear": 0
      }
    }
  ],
  "extensionsUsed": [
    "KHR_lights_punctual"
  ]
}